<svg width="34" height="36" viewBox="0 0 34 36" fill="none" xmlns="http://www.w3.org/2000/svg">
<g clip-path="url(#clip0_81_5)">
<mask id="mask0_81_5" style="mask-type:luminance" maskUnits="userSpaceOnUse" x="0" y="0" width="34" height="36">
<path d="M34 0H0V36H34V0Z" fill="white"/>
</mask>
<g mask="url(#mask0_81_5)">
<path d="M17.447 33.8182C16.9434 33.8161 16.4481 33.6897 16.0107 33.4507L10.943 30.6518V24.9797L6.91468 28.4226L3.01574 26.276C2.70594 26.1073 2.44809 25.8633 2.26959 25.568C2.09109 25.2727 1.99844 24.9369 2.00003 24.5958V9.22239C1.99816 8.88091 2.09108 8.54586 2.26959 8.2502C2.4481 7.95453 2.7057 7.70911 3.01574 7.54015L16.0107 0.369473C16.4475 0.128977 16.9432 0.00191178 17.447 0C17.9511 0.00053475 18.447 0.127694 18.8832 0.369473L31.8956 7.54841C32.2043 7.71651 32.4592 7.9602 32.6373 8.25433C32.8154 8.54845 32.9101 8.88244 32.909 9.22239V24.5958C32.9116 24.9357 32.8177 25.2698 32.6395 25.5639C32.4612 25.8579 32.2052 26.1012 31.8956 26.2677L18.8832 33.4548C18.4463 33.6944 17.9505 33.8196 17.447 33.8182ZM17.4492 1.92168C17.383 1.92204 17.3185 1.93905 17.2616 1.97121L4.6137 8.92723C4.55851 8.95662 4.51201 8.99895 4.47999 9.05107C4.44799 9.10319 4.43255 9.16193 4.43255 9.22239C4.43255 9.28285 4.44799 9.34366 4.47999 9.39577C4.51201 9.44789 4.55851 9.49023 4.6137 9.51962L8.49754 11.656L12.513 13.8645L17.2616 16.4777C17.3191 16.5077 17.3836 16.5232 17.4492 16.5231C17.5149 16.5243 17.5796 16.5087 17.6368 16.4777L30.2846 9.51962C30.3401 9.49046 30.3861 9.44792 30.4184 9.39577C30.4506 9.34363 30.4679 9.28298 30.4679 9.22239C30.4679 9.1618 30.4506 9.10322 30.4184 9.05107C30.3861 8.99892 30.3401 8.95639 30.2846 8.92723L17.6368 1.97121C17.5799 1.93692 17.5142 1.91913 17.447 1.91962L17.4492 1.92168Z" fill="#F58C53"/>
<path d="M9.45342 18.0026C9.26419 18.0032 9.07865 17.9502 8.91838 17.8496C8.7581 17.749 8.62966 17.605 8.54797 17.4343C8.46629 17.2636 8.43472 17.0732 8.45692 16.8853C8.47913 16.6973 8.5542 16.5196 8.67342 16.3726L18.5734 6.1726C18.6477 6.08689 18.7489 6.02896 18.8604 6.00834C18.9719 5.98771 19.0871 6.00562 19.1872 6.05911C19.2872 6.1126 19.366 6.1985 19.4108 6.30271C19.4555 6.40692 19.4635 6.52325 19.4334 6.6326L17.5134 12.6526C17.4568 12.8041 17.4378 12.9671 17.458 13.1276C17.4782 13.2881 17.5371 13.4413 17.6295 13.574C17.7219 13.7068 17.8452 13.8151 17.9887 13.8898C18.1322 13.9644 18.2917 14.0031 18.4534 14.0026H25.4534C25.6427 14.002 25.8282 14.055 25.9885 14.1556C26.1487 14.2562 26.2772 14.4002 26.3589 14.5709C26.4406 14.7416 26.4721 14.932 26.4499 15.1199C26.4277 15.3079 26.3526 15.4856 26.2334 15.6326L16.3334 25.8326C16.2592 25.9183 16.158 25.9762 16.0464 25.9969C15.9349 26.0175 15.8197 25.9996 15.7197 25.9461C15.6197 25.8926 15.5408 25.8067 15.4961 25.7025C15.4513 25.5983 15.4433 25.482 15.4734 25.3726L17.3934 19.3526C17.45 19.2011 17.4691 19.0381 17.4488 18.8776C17.4286 18.7171 17.3698 18.5639 17.2773 18.4312C17.1849 18.2984 17.0616 18.1901 16.9181 18.1154C16.7746 18.0408 16.6152 18.0021 16.4534 18.0026H9.45342Z" fill="#F58C53" stroke="white" stroke-width="2.5" stroke-linecap="round" stroke-linejoin="round"/>
</g>
</g>
<defs>
<clipPath id="clip0_81_5">
<rect width="34" height="36" fill="white"/>
</clipPath>
</defs>
</svg>
